<?xml version="1.0" encoding="utf-8"?>
<!-- Generator: Adobe Illustrator 26.3.1, SVG Export Plug-In . SVG Version: 6.00 Build 0)  -->
<svg version="1.1" id="Layer_1" xmlns="http://www.w3.org/2000/svg" xmlns:xlink="http://www.w3.org/1999/xlink" x="0px" y="0px"
	 viewBox="0 0 216.53 249.39" style="enable-background:new 0 0 216.53 249.39;" xml:space="preserve">
<style type="text/css">
	.st0{fill:url(#SVGID_1_);}
	.st1{opacity:0.26;clip-path:url(#SVGID_00000017487035037059353070000009413981359473210549_);}
	.st2{fill:#F05876;}
</style>
<g>
	<linearGradient id="SVGID_1_" gradientUnits="userSpaceOnUse" x1="105.507" y1="248.3965" x2="109.9757" y2="-36.8604">
		<stop  offset="0" style="stop-color:#C95F71"/>
		<stop  offset="1" style="stop-color:#384A97"/>
	</linearGradient>
	<path class="st0" d="M177.85,13.97H37.38c-13.45,0-24.36,10.91-24.36,24.36v100.43c0,0.18,0,0.36,0,0.53
		c0.12,22.61,27.81,33.58,43.69,17.49l56.16-56.89L75.26,76.74l9.47-9.47l45.12,14.93l18.26-19.03c2.95-3.07,7.74-3.87,11.28-1.5
		c4.8,3.21,5.2,9.79,1.26,13.57l-19.26,18.49l14.93,45.12l-9.47,9.47l-23.16-37.61L76.4,159.8c-26.48,27.49-7.42,73.61,30.75,73.95
		c0.28,0,0.57,0,0.86,0h0c52.46,0,94.99-42.53,94.99-94.99V39.12C203,25.23,191.74,13.97,177.85,13.97z"/>
	<g>
		<defs>
			<path id="SVGID_00000072258339463615238450000004882403169517294221_" d="M177.85,13.97H37.38c-13.45,0-24.36,10.91-24.36,24.36
				v100.43c0,0.18,0,0.36,0,0.53c0.12,22.61,27.81,33.58,43.69,17.49l56.16-56.89L75.26,76.74l9.47-9.47l45.12,14.93l18.26-19.03
				c2.95-3.07,7.74-3.87,11.28-1.5c4.8,3.21,5.2,9.79,1.26,13.57l-19.26,18.49l14.93,45.12l-9.47,9.47l-23.16-37.61L76.4,159.8
				c-26.48,27.49-7.42,73.61,30.75,73.95c0.28,0,0.57,0,0.86,0h0c52.46,0,94.99-42.53,94.99-94.99V39.12
				C203,25.23,191.74,13.97,177.85,13.97z"/>
		</defs>
		<clipPath id="SVGID_00000176043773696521487270000004355273172491042736_">
			<use xlink:href="#SVGID_00000072258339463615238450000004882403169517294221_"  style="overflow:visible;"/>
		</clipPath>
		<g style="opacity:0.26;clip-path:url(#SVGID_00000176043773696521487270000004355273172491042736_);">
			<path class="st2" d="M96.5,173.9c-1.13-0.68-2.44-0.98-3.72-1.27c-0.82-0.18-1.64-0.36-2.46-0.54c-2.37-0.52-4.74-1.04-7.11-1.55
				c-0.94-0.21-2.07-0.59-2.25-1.54c-0.11-0.56,0.17-1.1,0.3-1.66c0.13-0.55,0.01-1.28-0.53-1.45c-0.56-1.56-2.24-2.51-3.75-3.18
				c-1.51-0.66-3.14-1.08-4.55-1.95c-1.28-0.8-2.32-1.96-2.98-3.32c-1.01-2.09-4.5-2.01-6.81-1.77c-0.96,0.1-1.9,0.34-2.83,0.59
				c-1.83,0.49-3.66,0.97-5.49,1.46c-0.19,0.05-0.39,0.1-0.58,0.14c-0.01,0-0.01,0-0.01,0.01c-0.03,0.01-0.05,0.01-0.07,0.01
				c-0.16,0.04-0.32,0.07-0.48,0.09c-2.08,0.35-3.54-0.47-3.86-0.59l0,0c-0.56-0.24-1.1-0.63-1.48-1.01
				c-0.64-0.65-0.93-1.58-0.99-2.5c-0.06-0.91-0.07-1.79,0.01-2.7c0.06-0.75-0.68-1.34-1.42-1.48c-0.74-0.14-1.5,0.01-2.25-0.04
				c-0.75-0.05-1.58-0.39-1.8-1.11c-0.14-0.44-0.01-0.92,0.13-1.36c0.36-1.11,0.53-2.53,1.5-3.18c0.58-0.39,1.26-0.95,1.08-1.62
				c-0.1-0.39-0.49-0.65-0.89-0.7c-0.4-0.05-0.8,0.08-1.16,0.26c-1.88,0.95-3.01,3.28-5.09,3.57c-1.75,0.24-3.37-1.2-3.96-2.86
				c-0.58-1.66-0.46-3.57-0.38-5.33c0.08-1.88,1.48-3.62,3.3-4.11c0.89-0.24,1.82-0.19,2.73-0.26c0.91-0.07,1.68-0.63,2.54-0.95
				c1.23-0.45,2.67-0.27,3.75,0.47c1.69,1.16,2.27,3.34,3.44,5.01c0.32,0.45,0.82,0.92,1.35,0.77c0.41-0.11,0.64-0.56,0.65-0.99
				c0-0.42,0.06-0.98,0.03-1.4c-0.06-1.13-0.12-2.27,0.05-3.39c0.16-1.12,0.57-2.23,1.33-3.07c1.23-1.34,3.39-1.75,3.82-3.52
				c0.35-1.42,1.5-2.49,2.7-3.31c1.2-0.82,2.53-1.5,3.55-2.54c0.86-0.87,1.34-2,1.9-3.09c0.76-1.48,2.25-2.55,3.89-2.79
				c1.16-0.17,2.56-0.04,3.28-0.96c0.56-0.72,0.4-1.79-0.07-2.58c-0.47-0.78-1.19-1.38-1.79-2.07c-0.6-0.69-1.11-1.55-0.98-2.46
				c0.12-0.89,0.83-1.63,1.65-2c0.82-0.37,1.74-0.45,2.65-0.46c1.63-0.03,3.3,0.09,4.84-0.42c1.55-0.51,2.96-1.88,2.89-3.51
				c-0.07-1.53-1.36-2.67-2.46-3.74c-0.46-0.45-0.89-1.02-1.21-1.64c-0.01-0.02-0.03-0.04-0.04-0.07c-0.03-0.06-0.05-0.12-0.08-0.18
				c-0.03-0.05-0.05-0.11-0.07-0.17c-0.82-1.81-0.48-3.4-0.45-3.87c0.05-0.57,0.01-1.24-0.46-1.57c-0.57-0.39-1.34,0-1.86,0.46
				c-0.51,0.46-1.04,1.04-1.73,1.03c-0.86,0-1.43-0.93-1.51-1.78c-0.08-0.85,0.17-1.7,0.12-2.56c-0.09-1.5-1.46-2.43-2.62-3.39
				c-0.83-0.69-2.06-1-3.01-0.48c-0.68,0.37-1.09,1.07-1.47,1.74c-0.77,1.35-1.55,2.75-1.67,4.3c-0.09,1.12,0.18,2.25,0.07,3.37
				c-0.06,0.57-0.26,1.24-0.59,1.78c0,0.01,0,0.01-0.01,0.02c-0.5,0.78-1.29,2.16-1.33,2.82c-0.09,1.03-0.3,2.04-0.64,3.01
				c-0.15,0.43-0.36,0.88-0.76,1.09c-0.57,0.29-1.3-0.09-1.63-0.64s-0.39-1.21-0.48-1.85c-0.64-4.4-3.66-8.5-7.63-10.49
				c-1.56-0.78-1.98-2.95-1.35-4.58c0.63-1.63,2.03-2.82,3.4-3.91c2.63-2.07,5.39-3.75,8.09-5.72c1.08-0.79,2.17-1.59,3.25-2.38
				c0.98-0.72,2.01-1.51,2.4-2.66c0.21-0.61,0.21-1.27,0.34-1.9c0.13-0.63,0.42-1.29,0.99-1.58c0.97-0.49,2.09,0.27,2.84,1.06
				c1.11,1.16,1.8,2.58,2.62,3.95c0,0.01,0.01,0.01,0.01,0.02c1.11,1.92,0.15,3.34-0.78,3.85v0c-1.31,0.72-2.62,1.43-3.93,2.15
				c-0.52,0.29-1.13,0.76-0.96,1.33c0.18,0.6,1.01,0.62,1.63,0.71c1.1,0.15,2.04,0.89,2.69,1.79c0.65,0.9,1.46,1.86,1.72,2.94
				c0.21,0.89,1.22,1.44,2.12,1.28c0.9-0.16,1.61-0.92,1.89-1.78c0.28-0.87,0.16-1.82-0.15-2.68c-0.31-0.86-0.3-1.95-0.99-2.54
				c-0.41-0.35-0.22-1.15,0.3-1.29c0.4-0.11,0.82,0.13,1.1,0.44c0.28,0.3,0.49,0.68,0.79,0.95c0.5,0.46,1.33,0.55,2.02,0.33
				c0.36-0.15,1.03-0.64,0.62-1.97c0,0,0,0,0,0c-0.49-1.5-0.99-3.01-1.48-4.51c-0.48-1.44-0.95-2.89-1.43-4.33
				c-0.38-1.17-0.99-2.27-2.03-2.92c-2.06-1.27-3.8-3.06-5-5.17c-0.52-0.92-0.95-1.9-1.65-2.69c-0.7-0.79-2.12-2.05-3-1.46
				c-1.65,1.12-2.92,2.8-3.53,4.69c-0.24,0.74-0.38,1.54-0.15,2.28c0.24,0.76,0.84,1.34,1.29,2c0.44,0.66,0.44,1.52,0.16,2.27
				c-0.23,0.6-0.46,1.22-0.89,1.7c-0.43,0.48-1.09,0.82-1.71,0.67c-0.79-0.18-1.24-1.01-1.49-1.79c-0.37-1.17-0.39-2.41-0.27-3.64
				c0.17-1.84,0.34-3.67,0.51-5.51c0.05-0.55,0.12-1.15,0.47-1.58c0.51-0.61,1.4-0.68,2.18-0.84c0.78-0.16,1.67-0.62,1.69-1.42
				c0.01-0.45-0.29-0.87-0.69-1.07c-0.4-0.21-0.87-0.23-1.31-0.14c-1.36,0.26-2.36,1.42-3.11,2.58c-1.21,1.88-1.29,4.27-2.32,6.26
				c-0.5,0.96-0.53,2.08-0.53,3.16c0,1.08,0,2.19-0.42,3.18c-0.43,0.99-1.43,1.82-2.5,1.68C51,68,50.3,67.13,49.55,66.47
				c-1.13-1-2.74-1.02-4.1-1.66c-0.59-0.28-1.28,0.04-1.84,0.37c-0.56,0.33-1.21,0.7-1.83,0.51c-0.55-0.17-0.89-0.71-1.27-1.15
				c-1.03-1.17-2.76-1.04-4.28-1.4c-0.3-0.07-0.61-0.15-0.85-0.33c-0.24-0.19-0.39-0.52-0.28-0.81c0.11-0.28,0.43-0.4,0.72-0.47
				c0.29-0.06,0.61-0.1,0.83-0.3c0.23-0.19,0.32-0.73,0.14-0.97c-0.68-0.92-1.52-1.74-2.5-2.32c0,0,0,0,0,0
				c-0.34-0.22-1.04-0.6-1.33-0.85c-0.01-0.01-0.01-0.01-0.02-0.01c-0.02-0.02-0.04-0.03-0.05-0.05l-0.01,0.01
				c-0.31-0.26-0.75-0.4-1.16-0.48c-0.58-0.12-1.22-0.21-1.64-0.63c-0.42-0.42-0.51-1.06-0.8-1.58c-0.43-0.75-1.27-1.19-2.12-1.33
				c-0.85-0.14-1.81-0.37-2.64-0.12c-1.26,0.38-2.53,0.75-3.83,0.96c-0.56,0.09-1.14,0.15-1.69,0.02c-0.55-0.13-0.98-0.8-1.42-1.15
				c-3.05-2.42-6.42-4.77-8.41-8.11c-0.71-1.2-1.89-2.12-3.22-2.52c-1.33-0.41-3.08-0.66-4.2,0.17c-1.14,0.84-2.27,1.68-3.41,2.52
				c-0.51,0.38-1.04,0.76-1.66,0.9c-0.68,0.15-1.47,0-2.04,0.4c-0.38,0.27-0.58,0.75-0.62,1.22c-0.04,0.47-0.15,1.01,0.01,1.45
				c0.57,1.5,1.08,3.5,0.38,4.94c-0.28,0.58-1.07,0.73-1.7,0.58c-0.63-0.15-1.18-0.52-1.8-0.72c-0.96-0.31-2.07-0.17-2.92,0.38
				s-1.04,1.47-1.35,2.43c-0.22,0.68,0.12,1.5,0.75,1.82c1.09,0.56,2.6-0.45,3.77-0.11c0.32-0.13,0.68,0.21,0.7,0.55
				c0.02,0.35-0.19,0.66-0.41,0.93c-1.17,1.41-2.9,2.19-4.55,2.99c-1.65,0.8-3.5,1.68-4.18,3.38c-0.44,1.1-0.35,2.39,0.22,3.42
				c0.2,0.36,0.46,0.69,0.62,1.06c0.17,0.38,0.42,0.97,0.14,1.27c-0.33,0.36-0.44,0.9-0.27,1.35c0.16,0.45,0.63,0.66,1.12,0.69
				c0.42,0.03,0.85,0.06,1.24,0.23c0.39,0.17,0.72,0.51,0.77,0.93c0.06,0.6-0.45,1.09-0.92,1.47c-0.92,0.74-1.84,1.49-2.76,2.23
				c-0.27,0.21-0.56,0.49-0.52,0.83c0.03,0.31,0.35,0.54,0.67,0.56c0.31,0.03,0.62-0.09,0.92-0.2c1.35-0.52,2.65-1.27,4.07-1.56
				c1.18-0.24,2.01-1.31,2.48-2.42s0.7-2.31,1.25-3.37c0.54-1.03,1.39-1.9,2.41-2.47c0.4-0.22,0.87-0.4,1.31-0.26
				c0.43,0.14,0.59,0.65,0.39,1.06c-0.28,0.55-0.8,0.93-1.27,1.33c-0.48,0.39-0.95,0.86-1.07,1.47c-0.12,0.61,0.17,1.04,0.79,1.02
				c0.92,0.14,1.76-0.5,2.43-1.14c0.67-0.64,1.49-1.41,2.42-1.41c2.66,0,4.81,2.69,6.59,4.67c1.35,1.51,2.7,3.08,3.53,4.94
				c1.46,3.27,2.09,7.13,1.09,10.57c-0.57,1.95,0.06,4.19,1.55,5.57c0.52,0.48,1.15,0.89,1.38,1.55c0.24,0.68-0.02,1.41-0.27,2.08
				c-1.39,3.73-3.37,7.15-3.85,11.1c-0.44,3.66-0.49,7.84,1.86,10.69c2.6,3.15,3.38,7.05,4.57,10.96c0.56,1.83,1.39,3.58,2.45,5.18
				c0.33,0.49,0.76,1.02,1.36,1.05c0.37,0.02,0.74-0.19,0.91-0.52c0.18-0.32,0.08-0.83,0.04-1.19c-0.11-0.9-0.63-1.68-1.13-2.43
				c-1.07-1.64-2.65-3.51-2.77-5.47c-0.04-0.62-0.07-1.24-0.11-1.86c-0.01-0.19-0.02-0.38,0.04-0.56c0.07-0.18,0.23-0.33,0.42-0.33
				c0.19,0.01,0.62,0.28,0.52,0.45c0.12,2.36,1.62,4.4,3.05,6.29c0.83,1.1,2.2,2.29,2.54,3.63c0.61,2.44,1.51,4.84,3,6.86
				c1.49,2.02,3.56,3.71,6.01,4.27c2.15,0.49,4.53,1.08,6.71,1.44c2.2,0.36,4.17,1.91,5.03,3.97c0.54,1.28,0.71,2.79,1.69,3.77
				c1.07,1.07,2.9,0.99,4.41,1.14c0.98,0.1,1.91,0.67,2.44,1.5c0.53,0.83,0.66,1.91,0.35,2.84c-0.31,0.92-1.01,1.65-1.54,2.46
				c-1.27,1.92-0.9,4.28-1.3,6.55c-0.62,3.56,1.37,7,3.28,10.08c1.53,2.46,2.38,5.45,4.67,7.23c2.75,2.14,4.23,5.59,4.7,9.05
				c0.47,3.45,1.25,7.5-0.07,10.73c-1.55,3.78-3.12,7.93-2,11.86c0.59,2.05,1.87,3.85,2.47,5.9c0.48,1.64,0.49,3.38,0.74,5.07
				c0.25,1.69,0.78,3.44,2.05,4.59c1.35,1.22,2.26,2.93,3.66,4.11c0.51,0.43,1.1,0.84,1.76,0.91c0.67,0.06,1.42-0.36,1.5-1.02
				c0.04-0.36-0.11-0.71-0.26-1.04c-0.82-1.81-1.63-3.62-2.45-5.43c-0.32-0.7-0.09-1.37,0.27-2.05c0.35-0.68,0.91-1.24,1.33-1.89
				c0.41-0.65,0.68-1.48,0.36-2.19c-0.32-0.7-1.14-1.11-1.35-1.85c-0.18-0.61,0.13-1.27,0.54-1.76c0.41-0.49,0.94-0.88,1.32-1.39
				c0.92-1.25,0.77-3.18-0.35-4.26c-0.28-1.07,0.38-2.29,1.16-3.07c0.78-0.78,1.78-1.28,2.75-1.8c0.97-0.52,1.94-1.11,2.59-2.01
				c-0.11-1.12,0.33-2.21,1.18-2.94c0.85-0.74,1.87-1.28,2.69-2.05c2.24-2.13,2.56-5.54,3.88-8.34c1.26-2.67,3.54-4.85,6.27-5.99
				c1.27-1.92,1.87-4.53,1.97-6.83c0.05-1.14-0.05-2.3,0.2-3.41c0.25-1.11,0.94-2.22,2.03-2.56c1.26-0.39,2.17-2.45,2.05-3.76
				C98.57,175.71,97.63,174.58,96.5,173.9z"/>
			<path class="st2" d="M25.92,50.18c-0.63,0.7-0.93,1.7-0.77,2.63c0.15,0.93,0.74,1.79,1.56,2.26c0.32,0.18,0.67,0.31,0.94,0.56
				c0.27,0.25,0.43,0.68,0.23,0.99c-0.24,0.38-0.8,0.34-1.21,0.18c-0.41-0.16-0.84-0.41-1.27-0.32c-0.47,0.1-0.77,0.59-0.81,1.07
				c-0.04,0.48,0.12,0.95,0.28,1.4c0.31,0.88,0.74,1.88,1.63,2.18c1.28,0.43,2.61-0.87,3.93-0.61c0.66,0.13,1.18,0.63,1.64,1.13
				c0.46,0.5,0.92,1.03,1.56,1.26c0.63,0.23,1.49,0.03,1.72-0.6c0.21-0.57-0.15-1.21-0.06-1.81c0.11-0.79,0.9-1.26,1.48-1.81
				c1.57-1.49,1.72-3.91,1.76-6.08c0.01-0.42,0.01-0.84-0.13-1.23c-0.14-0.39-0.46-0.75-0.87-0.8c-0.75-0.11-1.24,0.72-1.72,1.31
				c-0.4,0.49-1.38,1.44-2.08,1.21c-0.75-0.25-1.65-1.62-2.21-2.18c-0.62-0.62-1.26-1.26-2.08-1.58
				C28.25,48.88,26.78,49.22,25.92,50.18z"/>
			<path class="st2" d="M21.93,51.44c0.43,0.04,0.84-0.2,1.12-0.52c0.29-0.32,0.47-0.71,0.7-1.08c0.68-1.12,1.72-2.02,2.93-2.54
				c0.96-0.41,2.08-0.63,2.76-1.42c0.77-0.89,0.66-2.41-0.24-3.18c-1.43-1.23-3.6,0.01-4.79,1.01c-1.6,1.34-2.81,3.15-3.39,5.16
				c-0.14,0.5-0.25,1.03-0.13,1.54C21.01,50.92,21.41,51.39,21.93,51.44z"/>
			<path class="st2" d="M35.69,141.87c-0.36,0-0.84,0.12-0.84,0.48c0,0.27,0.27,0.44,0.51,0.55c0.81,0.39,1.62,0.79,2.43,1.18
				c1.16,0.56,2.32,1.12,3.55,1.51c0.42,0.13,0.87,0.24,1.29,0.11c2.1-0.66-1.47-2.48-2.07-2.75
				C39.04,142.26,37.36,141.88,35.69,141.87z"/>
			<path class="st2" d="M46.45,146.26c-0.45-0.01-0.98,0.03-1.21,0.41c-0.19,0.3-0.09,0.72,0.15,0.98c0.24,0.26,0.59,0.4,0.93,0.49
				c0.7,0.19,1.43,0.23,2.14,0.11c0.72-0.11,1.7-0.75,1-1.51C48.82,146.04,47.29,146.28,46.45,146.26z"/>
			<path class="st2" d="M114.75,71.36c0.76-1.12,1.09-2.62,0.55-3.86c-0.56-1.29-1.99-2.51-1.41-3.79c0.42-0.93,1.62-1.11,2.57-1.48
				c2.2-0.84,3.59-3.39,3.1-5.7c-1.1-5.23,0.7-10.9,4.32-14.82c0.47-0.5,0.97-0.99,1.26-1.61c0.29-0.62,0.32-1.42-0.13-1.94
				c-0.51-0.58-1.41-0.59-2.15-0.39c-0.74,0.2-1.45,0.56-2.22,0.59c-0.77,0.03-1.64-0.46-1.67-1.23c-0.03-0.78,0.76-1.29,1.35-1.79
				c0.6-0.5,1.05-1.51,0.43-1.98c-3.11-2.35-7.27-3.4-10.97-2.16c-2.31,0.78-4.47,2.31-6.91,2.21c-1.35-0.06-2.62-0.62-3.96-0.78
				c-1.34-0.16-2.93,0.26-3.45,1.5c-2.66,1.8-5.4,4.29-8.07,6.09c-1.75,1.18-3.62,2.53-4.16,4.56c-0.4,1.48,0.06,3.17,1.15,4.25
				c0.74,0.74,1.72,1.19,2.59,1.78c0.87,0.59,1.68,1.42,1.79,2.47c0.28,2.69,1.5,5.27,1.93,7.93c0.3,1.87,0.46,3.78,0.23,5.66
				c-0.34,2.77-1.53,5.44-3.39,7.53c-0.7,0.79-1.03,2-1.29,3.01c-0.26,1.02-0.25,2.14,0.25,3.06c0.48,0.88,1.39,1.54,1.59,2.51
				c0.1,0.46,0.02,0.93,0.01,1.4c-0.02,0.47,0.04,0.97,0.35,1.32c0.3,0.36,1.5,0.42,1.9,0.19c0.9-0.51,1.94,0.37,2.56,1.19
				c0.62,0.83,1.5,1.8,2.49,1.48c0.95-0.3,1.13-1.52,1.33-2.5c0.67-3.25,3.26-5.8,6.09-7.54c2.83-1.74,6-2.87,8.86-4.57
				C112.85,73.29,113.99,72.48,114.75,71.36z"/>
			<path class="st2" d="M106.05,92.63c0.53-0.56,0.76-1.24,1.39-1.75c0.67-0.54,1.79-0.84,2.21-1.64c0.24-0.45,0.18-1.03-0.11-1.45
				c-0.28-0.42-0.76-0.7-1.27-0.78c-1.58-0.26-3.08,1.22-4.65,0.92c-0.86-0.16-1.72-0.83-2.51-0.46c-0.64,0.3-0.81,1.19-0.55,1.85
				c0.26,0.66,0.82,1.14,1.37,1.6C102.9,91.72,104.77,93.97,106.05,92.63z"/>
			<path class="st2" d="M284.98,53.65c-0.22-0.27-0.5-0.49-0.71-0.77c-0.48-0.63-0.57-1.47-0.6-2.26c-0.03-0.79-0.02-1.61-0.35-2.33
				c-0.34-0.72-1.14-1.29-1.9-1.06c-1.14,0.35-2.52,0.42-3.65,0.04c-1.75-0.6-2.78-2.52-4.51-3.18c-1.54-0.59-3.18-0.78-4.79-1.14
				c-1.77-0.39-3.62-0.78-5.38-0.33c-1.76,0.45-3.37,2.01-3.24,3.81c0.02,0.27-0.24,0.53-0.47,0.68c-0.23,0.15-0.51,0.21-0.77,0.27
				c-1.19,0.28-2.38,0.55-3.58,0.83c-0.5,0.12-1.01,0.23-1.53,0.21c-0.52-0.02-1.05-0.19-1.39-0.58c-0.87-0.97-2.24-1.54-3.25-2.35
				c-0.27-0.22-0.58-0.44-0.92-0.41c-0.28,0.03-0.51,0.23-0.73,0.4c-1.03,0.79-2.38,1.14-3.67,0.97c-2.75-0.37-5.57-1.14-8.23-1.93
				c-1.09-0.33-2.29-0.29-3.36,0.11c-0.21,0.08-0.44,0.19-0.54,0.39c-0.15,0.3,0.03,0.65,0.21,0.93c0.39,0.63,0.81,1.49,1.12,2.16
				c0.13,0.29,0.01,0.65-0.21,0.89c-0.22,0.23-0.53,0.36-0.82,0.49c-1.4,0.6-2.8,1.2-4.2,1.8c-0.74,0.32-1.54,0.64-2.34,0.5
				c-0.66-0.12-1.22-0.56-1.63-1.08c-0.41-0.53-0.85-1.1-1.13-1.71c-0.21-0.45-0.65-0.76-1.12-0.91c-0.47-0.16-0.97-0.18-1.47-0.2
				c-0.76-0.03-1.68-0.02-2.37-0.34c-0.29-0.14-0.63,0.1-0.77,0.39c-0.13,0.29-0.12,0.62-0.19,0.94c-0.17,0.86-0.88,1.55-1.71,1.85
				c-0.83,0.3-1.75,0.24-2.59,0c-0.84-0.24-1.81-0.41-2.57-0.84c-1.01-0.58-2.46-0.22-3.07,0.77c-0.34,0.55-0.56,1.33-1.2,1.45
				c-0.65,0.12-1.16-0.65-1.11-1.31c0.06-0.66,0.46-1.22,0.75-1.82c1.05-2.15-0.21-4.55-1.42-6.62c-0.42-0.72-1.53-0.89-2.15-0.34
				c-0.34,0.3-0.53,0.77-0.94,0.96c-0.44,0.21-0.99,0.01-1.33-0.33s-0.44-0.88-0.7-1.3c-0.49-0.8-1-1.62-1.78-2.13
				c-0.78-0.51-1.92-0.6-2.6,0.04c-0.54,0.52-0.65,1.37-0.42,2.08c0.23,0.71,0.78,1.42,1.45,1.75c0.57,0.28,0.78,1.06,0.57,1.66
				c-0.22,0.6-0.75,1.04-1.33,1.31c-0.58,0.27-1.21,0.41-1.82,0.62c-1.6,0.55-2.53,2.1-4.01,2.91c-0.51,0.28-0.89,0.79-1.01,1.35
				c-0.12,0.57,0.03,1.19,0.39,1.64c0.28,0.36,0.67,0.61,0.96,0.96c0.29,0.35,0.46,0.87,0.21,1.25c-0.18,0.28-0.55,0.39-0.88,0.36
				c-0.33-0.03-0.66-0.21-0.99-0.22c-0.52-0.02-1,0.35-1.2,0.83c-0.2,0.48-0.16,1.03,0.01,1.52c0.17,0.49,0.44,0.77,0.74,1.2
				c0.26,0.36,0.52,0.74,0.63,1.17c0.11,0.43,0.02,0.94-0.32,1.23c-0.39,0.32-0.97,0.25-1.42,0.03c-0.45-0.22-0.82-0.58-1.25-0.83
				c-0.43-0.26-1.02-0.61-1.36-0.25c-0.72,0.78-0.7,2.01-0.36,3.02c0.34,1.01,0.95,1.91,1.3,2.92c0.35,1.01,0.58,2.4-0.25,3.07
				c-0.64,0.52-1.65,0.28-2.23-0.31c-0.58-0.59-0.83-1.41-1.07-2.2c-0.38-1.29-0.76-2.58-1.15-3.87c-0.14-0.47-0.28-0.94-0.57-1.34
				s-0.74-0.7-1.23-0.67c-0.86,0.05-1.33,1.06-1.37,1.92c-0.12,2.52,2.1,4.88,1.64,7.36c-0.1,0.51-0.68,0.81-1.2,0.76
				c-0.52-0.05-0.97-0.37-1.36-0.71c-0.39-0.34-0.77-0.71-1.24-0.93c-0.47-0.21-1.08-0.23-1.47,0.12c-0.49,0.45-0.19,1.09-0.2,1.76
				c-0.01,0.53-0.5,0.93-1,1.12c-0.5,0.19-1.05,0.24-1.51,0.49c-0.46,0.25-0.81,0.68-1.3,0.87c-0.66,0.26-1.76,0.03-1.78-0.68
				c-0.01-0.53-0.49-1.02-1.02-1.04c-0.66-0.03-1.19,0.54-1.53,1.11c-0.34,0.57-0.6,1.31-1.18,1.64c-0.15,0.41-0.64,0.59-1.07,0.58
				c-0.43-0.01-0.86-0.15-1.29-0.18c-0.39-0.03-0.81,0.06-1.08,0.34c-0.27,0.28-0.32,1.02-0.02,1.27c0.1,0.31,0.21,0.63,0.21,0.95
				c0,0.33-0.11,0.67-0.38,0.86c-0.45,0.33-1.15,0.19-1.65-0.05c-0.65-0.31-1.44,0.21-1.77,0.85c-0.33,0.65-0.37,1.4-0.6,2.08
				c-0.23,0.69-0.78,1.37-1.5,1.37c-0.75-0.01-1.27-0.72-1.66-1.35c-0.47-0.75-0.93-1.5-1.4-2.25c-0.16-0.26-0.33-0.54-0.33-0.85
				c0.01-0.51,0.49-0.9,0.99-1c0.5-0.1,1.01,0.02,1.51,0.11c0.5,0.08,1.04,0.12,1.49-0.12c0.78-0.42,0.92-1.56,0.51-2.35
				c-0.41-0.79-0.88-1.45-1.75-1.63c-2.26-0.47-4.71-1.05-6.17-2.84c-0.51-0.63-0.9-1.41-1.6-1.82c-0.69-0.41-1.56-0.38-2.31-0.12
				c-0.75,0.26-1.31,0.94-2.06,1.22c-3.24,1.18-5.47,3.84-7.51,6.61c-1.08,1.47-1.45,3.32-2.06,5.03s-1.76,3.53-3.4,4.32
				c-0.3,0.14-0.6,0.29-0.84,0.52c-0.24,0.23-0.41,0.56-0.36,0.89c0.05,0.33,0.29,0.59,0.4,0.91c0.11,0.32,0.06,0.67,0.02,1
				c-0.12,0.85-0.11,1.7-0.14,2.56c-0.01,0.44,0.11,0.91,0.4,1.24c0.3,0.33,0.78,0.51,1.2,0.36c0.67-0.23,0.93-1.1,1.58-1.38
				c0.68-0.28,1.47,0.25,1.74,0.93c0.27,0.68,0.03,1.45,0.22,2.16c0.16,0.61,0.33,1.23,0.49,1.84c0.13,0.48,0.31,1.02,0.77,1.21
				c0.43,0.18,0.92-0.04,1.34-0.25c0.64-0.32,1.29-0.66,1.77-1.19c0.48-0.53,0.82-1.29,0.74-2c-0.44-3.83-1.66-8.41,0.74-11.43
				c0.5-0.63,1.04-1.22,1.61-1.78c0.4-0.39,0.82-0.76,1.32-1c0.5-0.24,1.09-0.34,1.61-0.16c0.52,0.18,0.96,0.67,0.96,1.23
				c0,0.52-0.34,0.97-0.67,1.38c-0.56,0.68-0.95,1.43-1.58,2.05c-0.81,0.81-0.97,2.19-0.35,3.16c0.61,0.97,1.88,1.18,3.02,1.1
				c1.09-0.08,2.19,0.02,3.25,0.29c0.36,0.09,0.78,0.28,0.8,0.65c0.02,0.37-0.38,0.61-0.74,0.7c-0.78,0.19-1.63,0.06-2.36,0.4
				c-0.93,0.44-1.48,1.72-1.07,2.67c0.22,0.51-0.31,1.05-0.84,1.22c-0.53,0.16-1.14,0.15-1.6,0.46c-0.85,0.57-0.75,1.82-1.11,2.77
				c-0.48,1.29-1.87,2.05-3.24,2.19c-1.37,0.14-2.81-0.02-4.15-0.34c-1.07-0.25-1.94-1.19-2.12-2.27c-0.04-0.27-0.05-0.55-0.14-0.81
				c-0.09-0.26-0.31-0.5-0.58-0.51c-0.34-0.02-0.61,0.32-0.65,0.65c-0.04,0.34,0.1,0.67,0.23,0.98c0.22,0.53,0.41,0.89,0.39,1.47
				c-0.02,0.58-0.41,1.1-0.87,1.45c-0.47,0.35-1.02,0.57-1.54,0.82c-2.05,0.98-4.07,2.42-4.9,4.53c-0.29,0.74-1.13,1.1-1.88,1.37
				c-0.82,0.3-1.64,0.6-2.45,0.9c-0.72,0.26-1.54,0.64-1.69,1.39c-0.14,0.68,0.37,1.32,0.9,1.76c0.54,0.44,1.17,0.83,1.44,1.47
				c0.22,0.51,0.17,1.14-0.15,1.61c-0.31,0.47-0.88,0.73-1.44,0.73c-1.12,0.01-2.27,0.03-3.29,0.48c-1.37,0.62-1.98,1.99-2.4,3.43
				c-0.51,1.77,0.13,3.81,1.56,4.97c1.43,1.16,3.56,1.36,5.18,0.49c3.09-1.66,3.6-6.2,6.61-7.98c1.54-0.91,3.44-0.91,5.23-0.88
				c3.01,0.05,4.91,3.63,5.72,6.53c0.14,0.5,0.3,1.09,0.78,1.3c0.38,0.17,0.83,0.02,1.14-0.26c0.31-0.27,0.5-0.65,0.68-1.02
				c0.3-0.6,0.61-1.27,0.47-1.92c-0.21-0.94-1.22-1.42-2.05-1.91c-1.1-0.65-2.06-1.54-2.8-2.59c-0.28-0.39-0.53-0.91-0.3-1.34
				c0.2-0.37,0.69-0.49,1.1-0.39c0.41,0.1,0.75,0.37,1.07,0.64c2.81,2.29,5.27,5.15,6.11,8.67c0.1,0.42,0.19,0.84,0.41,1.21
				s0.63,0.65,1.05,0.6c0.57-0.07,0.91-0.7,0.9-1.27c-0.01-0.57-0.28-1.1-0.48-1.63c-0.2-0.53-0.33-1.15-0.08-1.66
				c0.47-0.38,1.2-0.29,1.7,0.05c0.5,0.34,0.84,0.87,1.15,1.39c0.77,1.24,1.53,2.49,2.3,3.73c0.43,0.71,1.09,1.16,1.92,1.24
				c0.82,0.08,1.64-0.14,2.46-0.3c0.81-0.16,1.68-0.26,2.45,0.02c1.03,0.37,1.76,1.46,1.72,2.55c-0.04,1-0.54,1.95-1.45,2.38
				c-0.9,0.44-1.95,0.42-2.96,0.39c-1.61-0.04-3.22-0.08-4.82-0.12c-1.09-0.03-2.21-0.06-3.25-0.4c-1.02-0.34-2.09-0.97-3.09-0.59
				c-0.63,0.24-1.04,0.82-1.45,1.35c-0.4,0.54-0.87,1.09-1.53,1.23c-0.65,0.14-1.47-0.39-1.33-1.04c-0.71-1.17-2.36-2.05-3.72-2.21
				c-0.46-0.05-0.96-0.05-1.31-0.35c-0.59-0.49-0.38-1.41-0.39-2.18c0-1.33-0.87-2.62-2.1-3.12c-1.74-0.71-3.8-0.34-5.59,0.25
				c-1.79,0.58-3.51,1.43-5.38,1.71c-0.78,0.12-1.58,0.13-2.34,0.36c-0.76,0.22-1.5,0.7-1.77,1.44c-1.34,3.62-4.88,6.25-7.18,9.35
				c-1.52,2.06-3.07,4.16-3.93,6.58c-0.44,1.23-0.38,2.55-0.49,3.85c-0.07,0.85-0.14,1.7-0.21,2.56c-0.04,0.53-0.08,1.05-0.04,1.58
				c0.08,0.91,0.44,1.79,1.01,2.49c1.67,0.47,2.57,2.58,3.1,4.23c0.54,1.65,0.98,3.47,2.33,4.57c1.16,0.94,2.79,1.14,4.26,0.86
				c1.47-0.28,2.82-0.97,4.14-1.66c3.03-1.57,6.94,0.06,9.9,1.76c0.54,0.31,1.12,0.54,1.6,0.93c0.7,0.57,1.46,1.27,1.44,2.17
				c-0.02,0.71-0.52,1.31-0.76,1.98c-0.41,1.14,0.07,2.53,1.1,3.18c3.11,1.95,4.19,6.66,2.94,10.12c-0.46,1.26-1.21,2.42-1.54,3.72
				s-0.09,2.9,1.04,3.63c1.5,0.95,1.81,2.95,2.13,4.69c0.26,1.43,0.16,2.91,0.34,4.36c0.17,1.45,0.69,2.96,1.86,3.82
				c1.72,1.26,0.01,4.56,1.31,6.25c0.81,1.04,2.26,1.32,3.58,1.31c3.03-0.04,6.02-1.31,8.14-3.47c1.08-1.1,2.37-2.13,2.83-3.6
				c0.29-0.95,0.35-2,0.92-2.82c0.57-0.82,1.55-1.24,2.34-1.86c0.79-0.61,1.44-1.69,0.99-2.58c-0.83-1.63-0.33-3.84,0.75-5.32
				c0.87-1.2,2.2-1.97,3.27-2.99c1.07-1.02,1.92-2.56,1.42-3.95c-1.07-2.94-1.12-6.26-0.4-9.3c0.73-3.04,2.72-5.88,5.6-7.11
				c1.94-0.83,3.38-2.44,4.48-4.25c1.1-1.8,1.34-4.3,0.02-5.94c-0.72-0.89-2.07-1.31-3.2-1.52c-1.13-0.21-2.31-0.3-3.33-0.84
				c-0.9-0.48-1.6-1.3-1.94-2.25c-0.24-0.68-1.03-0.97-1.54-1.48c-0.56-0.57-0.94-1.28-1.32-1.98c-0.65-1.2-1.3-2.41-1.96-3.61
				c-1.36-2.51-2.52-5.29-3.87-7.81c-0.21-0.4-0.43-0.81-0.44-1.26c-0.02-0.45,0.24-0.94,0.68-1.04c0.52-0.12,0.98,0.32,1.32,0.73
				c2.86,3.42,5.23,7.25,7.01,11.33c0.63,1.44,0.93,3.06,1.85,4.34c0.93,1.27,2.39,2.27,3.97,2.21c1.23-0.05,2.34-0.71,3.39-1.35
				c1.6-0.98,3.2-1.95,4.79-2.93c1.02-0.62,2.05-1.25,2.85-2.13c0.8-0.88,1.36-2.06,1.23-3.24c-0.13-1.18-1.08-2.31-2.27-2.37
				c-1.69,0.02-3.46-0.32-5.03-0.93c-0.9-0.34-1.84-0.89-2.1-1.81c-0.3-1.11-1.04-2.01-2-2.66c-0.28-0.19-0.58-0.35-0.81-0.59
				c-0.23-0.24-0.39-0.59-0.29-0.92c0.08-0.26,0.31-0.46,0.57-0.55c0.26-0.09,0.54-0.09,0.81-0.07c0.5,0.03,1,0.14,1.43,0.38
				c0.94,0.53,1.47,1.63,2.32,2.28c0.85,0.65,1.92,1.09,2.99,0.98c0.56-0.06,1.12-0.26,1.68-0.18c0.68,0.1,1.22,0.58,1.77,0.99
				c0.55,0.41,1.24,0.77,1.89,0.57c1.85-0.58,3.95,0.3,5.88,0.44c0.53,0.04,1.08,0.09,1.54,0.34c0.46,0.26,0.82,0.79,0.71,1.31
				c-0.22,0.98,0.1,2.05,0.93,2.62c0.83,0.56,2.02,0.53,2.83-0.07c0.59-0.44,1.42,0.16,1.7,0.84c0.28,0.68,0.21,1.45,0.2,2.19
				c-0.01,1.52,0.29,3.05,0.88,4.46c0.85,2.04,1.81,4.09,3.05,5.92c0.38,0.56,0.85,1.16,1.52,1.22c0.72,0.06,1.33-0.58,1.55-1.27
				s0.15-1.43,0.18-2.15c0.1-2.22,1.23-4.37,3-5.72c1.18-0.89,2.14-2.1,3.34-2.96c0.53-0.38,1.1-0.82,1.26-1.45
				c0.14-0.53-0.03-1.15,0.3-1.59c0.23-0.3,0.63-0.42,1.01-0.39c0.37,0.03,0.73,0.18,1.07,0.33c1.15,0.5,2.34,1.02,3.2,1.94
				c0.53,0.57,1.02,1.19,1.19,1.95c0.17,0.76,0.21,1.56,0.51,2.27c0.3,0.72,0.96,1.37,1.74,1.33c0.38-0.02,0.74-0.2,1.12-0.2
				c0.54,0.01,1.02,0.41,1.27,0.88c0.26,0.48,0.33,1.03,0.41,1.57c0.36,2.64-0.05,5.49,1.07,7.91c0.34,0.74,0.78,1.42,1.22,2.1
				c0.67,1.04,1.34,2.07,2.01,3.11c0.37,0.57,0.92,0.81,1.57,1.03c0.39,0.13,0.89,0.18,1.17-0.12c0.2-0.21,0.22-0.55,0.13-0.82
				c-0.09-0.28-0.27-0.51-0.45-0.74c-0.62-0.79-1.05-1.68-1.6-2.52c-0.55-0.84-1.1-1.67-1.65-2.5c-0.48-0.72-0.97-1.44-1.24-2.26
				c-0.27-0.82-0.29-1.76,0.14-2.51c0.25-0.44,0.48-0.81,0.99-0.87c0.51-0.06,1.04,0.18,1.32,0.6c0.04,0.53,0.68,0.83,1.18,0.99
				c0.51,0.16,1.08,0.3,1.37,0.75c0.27,0.43,0.18,1.02,0.48,1.43c0.23,0.32,0.67,0.46,1.03,0.33c0.37-0.13,0.63-0.51,0.62-0.9
				c-0.02-0.5,0.48-1.17,0.89-1.46c0.41-0.28,0.87-0.51,1.2-0.88c0.62-0.7,0.6-1.88-0.04-2.56c-1.72-1.81-3.39-3.8-3.93-6.23
				c-0.1-0.44-0.17-0.91-0.06-1.35c0.1-0.44,0.41-0.87,0.85-0.99c1.1-0.31,2.26-0.35,3.4-0.46c0.71-0.07,1.44-0.14,2.12-0.36
				c0.68-0.22,1.34-0.61,1.75-1.2c0.86-1.23,2.29-1.92,3.54-2.76c0.59-0.39,1.19-0.96,1.14-1.66c-0.05-0.79,0.2-1.5,0.65-2.15
				s1.03-1.22,1.39-1.92c0.36-0.7,0.48-1.61,0.01-2.25c-0.41-0.56-0.83-1.18-0.99-1.86c-0.13-0.54-0.11-1.1-0.18-1.64
				c-0.15-1.15-0.71-2.25-1.56-3.04c-0.71-0.66-0.82-1.98-0.19-2.71c0.35-0.41,0.92-0.69,1.03-1.22c0.12-0.56-0.35-1.07-0.83-1.39
				c-0.48-0.31-1.04-0.58-1.3-1.1c-0.32-0.65,0.02-1.48,0.63-1.87c0.61-0.38,1.4-0.37,2.08-0.14c1.16,0.4,2.02,1.37,2.73,2.37
				c0.87,1.23,1.27,2.72,1.85,4.1c0.17,0.4,0.35,0.82,0.7,1.08c0.61,0.45,1.56,0.21,2.03-0.39c0.47-0.6,0.55-1.43,0.4-2.18
				c-0.18-0.92-0.97-1.82-1.55-2.56c-0.42-0.54-0.84-1.1-1.01-1.76c-0.28-1.11,0.24-2.26,0.74-3.29c0.53-1.08,1.07-2.19,1.93-3.03
				c0.59-0.58,1.32-1.01,1.94-1.56c0.62-0.55,1.17-1.27,1.21-2.1c0.19-3.67,1.65-7.12,0.87-10.71c-0.36-1.64-1.13-3.15-2.02-4.57
				c-0.65-1.03-1.47-2.03-2.6-2.46c-0.2-0.08-0.4-0.13-0.59-0.21c-0.86-0.36-1.51-1.19-1.64-2.11c-0.13-0.92,0.26-1.9,0.99-2.48
				c0.88-0.7,1.01-1.89,0.82-2.99c-0.1-0.61-0.34-1.22-0.2-1.81c0.12-0.5,0.49-0.91,0.93-1.18c0.44-0.27,0.94-0.42,1.43-0.57
				c2.07-0.62,4.31-0.19,6.4-0.74c0.79-0.21,1.6-0.48,2.13-1.09c0.54-0.61,0.66-1.65,0.06-2.19c-0.07-1-0.15-2.07-0.22-3.07
				c-0.03-0.44-0.06-0.89,0.05-1.31c0.11-0.43,0.4-0.83,0.83-0.96c1-0.31,1.99,1,2.97,0.64c0.37,0.21,0.72-0.25,0.84-0.65
				c0.12-0.41,0.18-0.91,0.57-1.09c0.39-0.18,0.87,0.14,1.01,0.55c0.14,0.41,0.05,0.86-0.05,1.28c-0.21,0.92-0.42,1.84-0.63,2.75
				c-0.6,2.63-1.2,5.26-1.79,7.89c-0.33,1.47,0.03,3.06,0.89,4.29c1.61,2.29,2.77,4.94,4.08,7.42c0.16,0.31,0.36,0.65,0.69,0.77
				c0.62,0.23,1.23-0.5,1.24-1.16c0.01-0.66-0.31-1.28-0.41-1.94c-0.24-1.59,0.84-3.04,1.31-4.58c0.69-2.26,0-4.77-1.3-6.74
				c-0.8-1.22-2.04-2.13-2.22-3.57c-0.19-1.45,0.52-3.06,1.87-3.6c0.54-0.22,1.14-0.26,1.72-0.33c0.58-0.08,1.18-0.2,1.65-0.56
				c0.47-0.36,0.76-1.01,0.53-1.55c-0.4-0.97,0.11-2.06,0.69-2.93c0.58-0.87,1.29-1.76,1.3-2.8c0.01-0.54-0.16-1.16,0.2-1.57
				c0.18-0.2,0.45-0.29,0.65-0.46c0.57-0.46,0.42-1.54-0.26-1.82c-0.8-0.33-1.56-0.98-1.8-1.81c-0.24-0.82-0.12-1.69,0-2.53
				c0.11-0.78,0.23-1.58,0.64-2.24c0.41-0.67,1.21-1.16,1.97-0.97c0.76,0.19,1.56,0.29,2.1,0.85c0.33,0.35,0.57,0.77,0.86,1.15
				s0.67,0.73,1.14,0.83c0.47,0.1,1.03-0.14,1.16-0.6C285.36,54.28,285.2,53.92,284.98,53.65z M162.1,117.76
				c-0.3,0.81-1.28,1.18-2.14,1.13c-0.86-0.05-1.68-0.39-2.53-0.57c-1.94-0.41-4.05,0.12-5.56,1.4c-0.65,0.55-1.66,1.56-2.54,0.81
				c-0.62-0.53-0.59-1.63-0.35-2.32c0.72-2.02,1.65-3.73,3.25-5.19c0.37-0.33,0.73-0.67,1.1-1c0.21-0.19,0.43-0.39,0.69-0.51
				c0.89-0.41,1.89,0.17,2.69,0.73c1.21,0.84,2.42,1.69,3.64,2.53c0.51,0.36,1.04,0.72,1.41,1.23
				C162.12,116.49,162.32,117.17,162.1,117.76z M174.51,124.03c-1.13,0.74-2.58-0.08-3.2-1.1c-0.65-1.08-0.65-2.5-0.85-3.72
				c-0.41-2.52-3.28-5.16-2.06-7.77c0.46-0.99,1.62-1.64,2.68-1.41s1.88,1.38,1.63,2.45c-0.19,0.8-0.86,1.4-1.12,2.18
				c-0.38,1.15,0.25,2.4,1.04,3.32c0.79,0.92,1.78,1.7,2.35,2.77C175.54,121.81,175.52,123.36,174.51,124.03z M181.51,114.73
				c-0.32,0.55-0.86,1.2-1.54,1.23c-0.92,0.05-1.66-0.97-1.48-1.84c0.04-0.22,0.14-0.42,0.23-0.62c0.12-0.25,0.23-0.49,0.35-0.74
				c0.09-0.18,0.17-0.37,0.26-0.55c0.2-0.43,0.44-0.89,0.87-1.07C182.31,110.28,182.06,113.79,181.51,114.73z"/>
			<path class="st2" d="M116.85,98.08c0.61,0.82,1.18,1.78,1.04,2.79c-0.19,1.41-4.43,4.6-1.12,4.96c2.32,0.25,6.12-1.5,5.01-4.37
				c-0.55-1.43-2.06-2.23-2.63-3.66c-0.34-0.88-0.27-1.86-0.47-2.78s-0.89-1.88-1.83-1.85c-1.02,0.03-1.64,1.26-1.47,2.26
				C115.54,96.44,116.24,97.26,116.85,98.08z"/>
			<path class="st2" d="M111.52,103.34c0.05,0.31,0.12,0.62,0.28,0.89c0.16,0.27,0.43,0.49,0.74,0.53c0.54,0.07,0.98-0.38,1.33-0.8
				c0.5-0.58,1-1.18,1.27-1.89c0.6-1.57-0.46-3.22-2.21-2.36c-0.62,0.31-1.08,0.91-1.3,1.57
				C111.42,101.93,111.41,102.65,111.52,103.34z"/>
			<path class="st2" d="M165.48,67.36c0.42,0.2,0.97,0.33,1.3,0c0.66-0.65-0.3-1.64-0.59-2.22c-0.3-0.59-0.36-1.14-0.52-1.76
				c-0.32-1.21-1.64-3.15-3.08-1.93c-0.36,0.3-0.54,0.79-0.56,1.26c-0.01,0.47,0.12,0.94,0.31,1.38
				C162.93,65.51,164.08,66.7,165.48,67.36z"/>
			<path class="st2" d="M165.93,57.69c0.69-1.81,1.43-2.82,3.03-4.02c1.32-0.98,2.74-2.18,2.86-3.82c0.05-0.74-0.4-1.66-1.14-1.6
				c-0.39,0.03-0.71,0.33-0.98,0.62c-1.83,1.88-3.67,3.76-5.5,5.64c-0.88,0.9-1.82,2.04-1.53,3.26
				C163.13,59.68,165.35,59.2,165.93,57.69z"/>
			<path class="st2" d="M260.14,102.29c0.27,1,0.78,2.07,1.6,2.76c0.31,0.26,1.5,1.04,1.89,0.49c0.29-0.41-0.92-2.22-1.11-2.71
				c-0.41-1.07-0.71-2.18-0.9-3.31c-0.23-1.41-0.27-2.86-0.56-4.26c-0.29-1.4-0.85-2.81-1.92-3.76c-0.49-0.44-1.3-0.75-1.77-0.28
				c-0.33,0.32-0.3,0.87-0.09,1.28c0.21,0.41,0.56,0.72,0.85,1.08c0.97,1.16,1.31,2.72,1.47,4.23
				C259.74,99.29,259.74,100.83,260.14,102.29z"/>
			<path class="st2" d="M254.06,127.57c-0.56,0.54-1.01,1.24-1.05,2.01c-0.1,1.64,1.97,2.62,2.65,0.91c0.3-0.74,0.17-1.26,0.76-1.96
				c0.65-0.78,1.45-1.45,2.3-2c1.39-0.89,3.04-1.5,4.01-2.83c1.16-1.58,1.06-3.73,0.9-5.69c-0.05-0.62-0.22-1.39-0.82-1.52
				c-0.39-0.09-0.79,0.16-1.02,0.49c-0.22,0.33-0.31,0.74-0.41,1.13c-0.81,3.22-2.78,6.13-5.47,8.07
				C255.29,126.63,254.62,127.04,254.06,127.57z"/>
			<path class="st2" d="M231.54,172.19c-1.73-1.78-3.45-3.57-5.18-5.35c-0.48-0.5-0.99-1.01-1.63-1.29
				c-0.64-0.28-1.46-0.26-1.95,0.23c-0.74,0.72-0.38,2.03,0.36,2.75c0.73,0.73,1.74,1.11,2.53,1.77c1.05,0.87,1.67,2.14,2.31,3.35
				c0.64,1.21,1.39,2.44,2.58,3.11c0.97,0.55,3.19,0.71,3.58-0.69C234.51,174.74,232.34,173.01,231.54,172.19z"/>
			<path class="st2" d="M243.73,173.66c0.35-0.67-0.26-1.52,0.01-2.22c0.38-0.98,2.05-0.83,2.46-1.8c0.34-0.8-0.48-1.63-0.49-2.5
				c0-1.23,1.62-2.2,1.23-3.37c-0.27-0.8-1.37-1.02-2.15-0.68c-0.78,0.34-1.32,1.03-1.93,1.62c-1.25,1.22-2.73,1.87-4.4,2.32
				c-1.21,0.33-2.18,0.72-2.34,2.11c-0.4,3.34,3.09,4.87,5.77,5.1C242.58,174.29,243.42,174.27,243.73,173.66z"/>
			<path class="st2" d="M172.88,184.5c-0.62,0.16-1,0.79-1.22,1.39c-0.23,0.6-0.39,1.26-0.85,1.71c-0.74,0.71-2,0.67-2.7,1.41
				c-0.7,0.73-0.54,1.8-0.72,2.71c-0.16,0.8-0.5,1.37-1.06,1.94c-1.08,1.11-1.33,2.6-0.04,3.8c0.94,0.87,2.48,1,3.54,0.29
				c1.16-0.77,1.6-2.25,1.79-3.63c0.19-1.38,0.22-2.83,0.87-4.05c0.38-0.72,0.96-1.31,1.42-1.98c0.46-0.67,0.83-1.48,0.7-2.28
				C174.48,185.02,173.67,184.3,172.88,184.5z"/>
		</g>
	</g>
</g>
</svg>
